<svg width="27" height="27" viewBox="0 0 27 27" fill="none" xmlns="http://www.w3.org/2000/svg">
<path d="M13.5 2.25C8.55 2.25 4.5 6.3 4.5 11.25C4.5 17.325 12.375 24.1875 12.7125 24.525C12.9375 24.6375 13.275 24.75 13.5 24.75C13.725 24.75 14.0625 24.6375 14.2875 24.525C14.625 24.1875 22.5 17.325 22.5 11.25C22.5 6.3 18.45 2.25 13.5 2.25ZM13.5 22.1625C11.1375 19.9125 6.75 15.075 6.75 11.25C6.75 7.5375 9.7875 4.5 13.5 4.5C17.2125 4.5 20.25 7.5375 20.25 11.25C20.25 14.9625 15.8625 19.9125 13.5 22.1625ZM13.5 6.75C11.025 6.75 9 8.775 9 11.25C9 13.725 11.025 15.75 13.5 15.75C15.975 15.75 18 13.725 18 11.25C18 8.775 15.975 6.75 13.5 6.75ZM13.5 13.5C12.2625 13.5 11.25 12.4875 11.25 11.25C11.25 10.0125 12.2625 9 13.5 9C14.7375 9 15.75 10.0125 15.75 11.25C15.75 12.4875 14.7375 13.5 13.5 13.5Z" fill="#0D0D0D"/>
</svg>
