<svg width="50" height="50" viewBox="0 0 50 50" fill="none" xmlns="http://www.w3.org/2000/svg">
<path d="M10.4165 27.0585C10.4165 26.0494 10.4165 25.5449 10.6382 25.1141C10.8598 24.6834 11.2704 24.3901 12.0916 23.8036L23.8374 15.4137C24.3987 15.0128 24.6794 14.8123 24.9998 14.8123C25.3203 14.8123 25.601 15.0128 26.1623 15.4137L37.9081 23.8036C38.7293 24.3901 39.1398 24.6834 39.3615 25.1141C39.5832 25.5449 39.5832 26.0494 39.5832 27.0585V41.75C39.5832 42.6929 39.5832 43.1643 39.2903 43.4571C38.9974 43.75 38.526 43.75 37.5832 43.75H12.4165C11.4737 43.75 11.0023 43.75 10.7094 43.4571C10.4165 43.1643 10.4165 42.6929 10.4165 41.75V27.0585Z" fill="#FFC737"/>
<path d="M6.25 26.47C6.25 26.7369 6.25 26.8703 6.3341 26.9114C6.41819 26.9526 6.52352 26.8706 6.73418 26.7068L23.7721 13.4551C24.362 12.9963 24.6569 12.7669 25 12.7669C25.3431 12.7669 25.638 12.9963 26.2279 13.4551L43.2658 26.7068C43.4765 26.8706 43.5818 26.9526 43.6659 26.9114C43.75 26.8703 43.75 26.7369 43.75 26.47V23.8949C43.75 23.4145 43.75 23.1743 43.6483 22.9664C43.5466 22.7585 43.357 22.6111 42.9779 22.3162L26.2279 9.28839C25.638 8.82962 25.3431 8.60024 25 8.60024C24.6569 8.60024 24.362 8.82962 23.7721 9.28839L7.02212 22.3162C6.64295 22.6111 6.45337 22.7585 6.35168 22.9664C6.25 23.1743 6.25 23.4145 6.25 23.8949V26.47Z" fill="#FF381D"/>
<path d="M28.2082 31.25H21.7915C20.6869 31.25 19.7915 32.1454 19.7915 33.25V43.6C19.7915 43.6828 19.8587 43.75 19.9415 43.75H30.0582C30.141 43.75 30.2082 43.6828 30.2082 43.6V33.25C30.2082 32.1454 29.3127 31.25 28.2082 31.25Z" fill="#FF381D"/>
<rect x="33.3335" y="10.4166" width="4.16666" height="8.33333" rx="0.5" fill="#FF381D"/>
</svg>
