<svg width="695" height="742" viewBox="0 0 695 742" fill="none" xmlns="http://www.w3.org/2000/svg">
<g filter="url(#filter0_d_2_27)">
<path d="M399.598 0.911394C466.921 -8.68395 522.435 59.5351 573.049 109.205C621.542 156.792 666.597 211.286 684.066 280.069C701.104 347.157 683.214 416.36 668.248 484.041C653.143 552.357 644.562 628.451 596.706 675.159C549.143 721.581 479.731 722.922 416.402 729.846C357.549 736.281 298.036 738.081 243.178 713.812C188.063 689.43 146.549 642.269 107.434 593.16C64.0914 538.745 5.46358 485.835 4.03 413.567C2.59776 341.367 52.7009 279.375 100.218 229.435C140.553 187.044 203.948 190.272 249.794 155.277C307.185 111.469 330.279 10.7913 399.598 0.911394Z" fill="#F77C1C" fill-opacity="0.8" shape-rendering="crispEdges"/>
</g>
<g filter="url(#filter1_d_2_27)">
<path d="M505.955 156.597C541.692 180.765 559.069 221.858 582.864 258.118C606.668 294.39 635.56 326.919 645.536 369.295C657.19 418.795 663.729 471.965 644.251 518.869C623.402 569.073 587.23 620.818 535.291 634.767C483.715 648.618 438.118 595.939 385.282 588.417C333.451 581.037 269.707 627.748 231.475 591.51C192.568 554.633 227.868 486.727 221.441 433.123C216.474 391.705 187.13 353.028 198.055 312.801C208.983 272.561 251.483 252.658 278.905 221.528C310.631 185.514 326.065 128.558 371.905 115.449C417.767 102.333 466.314 129.788 505.955 156.597Z" fill="#FFC597" fill-opacity="0.8" shape-rendering="crispEdges"/>
</g>
<g filter="url(#filter2_d_2_27)">
<path d="M512.824 227.609C551.584 246.778 564.336 282.189 595.366 307.703C630.332 336.456 593.268 353.821 607.837 390.669C622.405 427.516 613.595 458.948 580.266 490.117C548.283 520.028 595.366 531.156 538.233 570.383C493.381 586.795 452.742 599.298 402.527 598.118C352.061 596.932 312.19 567.575 275.625 542.33C242.234 519.274 212.173 492.395 202.144 459.765C192.713 429.08 219.778 399.903 222.202 368.515C225.278 328.693 190.97 285.958 218.244 251.32C246.043 216.015 305.519 196.406 361.251 191.92C415.14 187.583 468.033 205.457 512.824 227.609Z" fill="#F89344" fill-opacity="0.8" shape-rendering="crispEdges"/>
</g>
<defs>
<filter id="filter0_d_2_27" x="0" y="0" width="695" height="742" filterUnits="userSpaceOnUse" color-interpolation-filters="sRGB">
<feFlood flood-opacity="0" result="BackgroundImageFix"/>
<feColorMatrix in="SourceAlpha" type="matrix" values="0 0 0 0 0 0 0 0 0 0 0 0 0 0 0 0 0 0 127 0" result="hardAlpha"/>
<feOffset dy="4"/>
<feGaussianBlur stdDeviation="2"/>
<feComposite in2="hardAlpha" operator="out"/>
<feColorMatrix type="matrix" values="0 0 0 0 0 0 0 0 0 0 0 0 0 0 0 0 0 0 0.35 0"/>
<feBlend mode="normal" in2="BackgroundImageFix" result="effect1_dropShadow_2_27"/>
<feBlend mode="normal" in="SourceGraphic" in2="effect1_dropShadow_2_27" result="shape"/>
</filter>
<filter id="filter1_d_2_27" x="191.637" y="112.069" width="469.013" height="533.007" filterUnits="userSpaceOnUse" color-interpolation-filters="sRGB">
<feFlood flood-opacity="0" result="BackgroundImageFix"/>
<feColorMatrix in="SourceAlpha" type="matrix" values="0 0 0 0 0 0 0 0 0 0 0 0 0 0 0 0 0 0 127 0" result="hardAlpha"/>
<feOffset dy="4"/>
<feGaussianBlur stdDeviation="2"/>
<feComposite in2="hardAlpha" operator="out"/>
<feColorMatrix type="matrix" values="0 0 0 0 0 0 0 0 0 0 0 0 0 0 0 0 0 0 0.35 0"/>
<feBlend mode="normal" in2="BackgroundImageFix" result="effect1_dropShadow_2_27"/>
<feBlend mode="normal" in="SourceGraphic" in2="effect1_dropShadow_2_27" result="shape"/>
</filter>
<filter id="filter2_d_2_27" x="196.156" y="191.267" width="422.455" height="414.928" filterUnits="userSpaceOnUse" color-interpolation-filters="sRGB">
<feFlood flood-opacity="0" result="BackgroundImageFix"/>
<feColorMatrix in="SourceAlpha" type="matrix" values="0 0 0 0 0 0 0 0 0 0 0 0 0 0 0 0 0 0 127 0" result="hardAlpha"/>
<feOffset dy="4"/>
<feGaussianBlur stdDeviation="2"/>
<feComposite in2="hardAlpha" operator="out"/>
<feColorMatrix type="matrix" values="0 0 0 0 0 0 0 0 0 0 0 0 0 0 0 0 0 0 0.35 0"/>
<feBlend mode="normal" in2="BackgroundImageFix" result="effect1_dropShadow_2_27"/>
<feBlend mode="normal" in="SourceGraphic" in2="effect1_dropShadow_2_27" result="shape"/>
</filter>
</defs>
</svg>
